<svg width="300" height="300" viewBox="0 0 119 114" fill="none" xmlns="http://www.w3.org/2000/svg">
<path d="M0 56.9187C0.143137 48.9507 0.222657 41.3326 0.461219 33.6986C0.556644 30.7564 1.03377 27.8141 1.36776 24.8718C1.5427 23.345 2.2902 22.1363 3.64205 21.3888C7.39543 19.3213 11.0534 17.0629 14.934 15.2657C27.4824 9.47661 40.4124 4.67356 53.6765 0.761135C58.1138 -0.558909 62.2488 -0.018169 66.4953 1.28597C81.2861 5.81865 95.7271 11.2261 109.532 18.2239C111.059 18.9873 112.458 19.9733 113.953 20.7845C116.084 21.9455 116.991 23.7744 117.309 26.1124C118.136 32.4104 118.263 38.7402 118.263 45.086C118.263 53.6265 118.343 62.167 118.184 70.7076C118.088 76.1627 117.627 81.6178 117.309 87.0571C117.166 89.554 116.005 91.3353 113.826 92.6712C108.625 95.8521 103.123 98.3808 97.5242 100.751C87.282 105.092 76.8648 108.893 66.2249 112.17C61.4218 113.649 56.8732 113.617 52.0861 112.122C37.0408 107.414 22.2817 102.007 8.25425 94.7547C6.64793 93.9276 5.13704 92.8621 3.59434 91.9237C2.322 91.1444 1.57451 89.9993 1.38366 88.5043C1.04967 85.7529 0.588452 83.0015 0.493027 80.2501C0.238561 72.3775 0.143137 64.4891 0 56.9187ZM77.2624 88.8224C78.7414 90.5719 80.3637 92.4168 81.9223 94.3412C82.4789 95.025 82.9401 95.1045 83.7513 94.8024C86.948 93.5937 90.1606 92.4645 93.3733 91.3035C94.4548 90.9059 95.5362 90.5083 96.7608 90.047C93.6277 86.7708 90.6218 83.6376 87.5842 80.4886C87.8863 80.091 88.1249 79.7889 88.3475 79.5026C91.3534 75.6856 93.8345 71.5505 95.1863 66.8747C97.8264 57.8252 97.5561 48.8553 93.5641 40.2034C89.4449 31.313 83.0038 24.681 73.8112 21.023C66.6702 18.1921 59.2271 17.7468 51.6408 18.5897C32.4127 20.689 20.5323 36.6886 19.1486 51.2091C18.4329 58.7636 19.4031 65.9522 22.9497 72.7274C26.1464 78.8346 30.5201 83.9398 36.4523 87.5024C46.5833 93.5778 57.4935 94.373 68.7695 91.7011C71.6164 91.0331 74.3519 89.8244 77.2624 88.8224Z" fill="url(#paint0_linear_664_10501)"/>
<path d="M63.2346 74.5406C59.9424 75.4153 56.5866 75.5743 53.2627 74.7791C45.8672 72.9978 41.1437 68.2266 38.9171 61.1015C36.3247 52.7678 39.9827 43.5593 47.4894 38.8675C54.7417 34.3349 64.9204 35.2732 71.1866 41.0464C77.3893 46.756 79.3455 55.376 76.1646 63.1055C75.8147 63.9484 75.3535 64.7277 74.9241 65.5388C74.606 66.1113 74.272 66.175 73.7949 65.6342C72.6339 64.3301 71.4093 63.0896 70.2483 61.7854C69.7553 61.2288 69.2304 61.0061 68.4511 61.1015C64.2365 61.6741 60.0219 62.183 55.8073 62.7079C55.0916 62.8033 54.3759 62.8192 53.6603 62.9464C53.3104 62.9941 52.9923 63.185 52.6583 63.3281C52.8332 63.6462 52.9446 64.012 53.199 64.2506C56.2526 67.3201 59.3062 70.3737 62.3916 73.4114C62.7097 73.7294 63.1391 73.9203 63.5208 74.1748C63.4095 74.2861 63.3141 74.4133 63.2346 74.5406Z" fill="url(#paint1_linear_664_10501)"/>
<defs>
<linearGradient id="paint0_linear_664_10501" x1="0.00149499" y1="56.6411" x2="118.292" y2="56.6411" gradientUnits="userSpaceOnUse">
<stop stop-color="#4E3EF4"/>
<stop offset="1" stop-color="#B837F4"/>
</linearGradient>
<linearGradient id="paint1_linear_664_10501" x1="38.0873" y1="55.6513" x2="77.6663" y2="55.6513" gradientUnits="userSpaceOnUse">
<stop stop-color="#4E3EF4"/>
<stop offset="1" stop-color="#B837F4"/>
</linearGradient>
</defs>
</svg>
